<svg width="1440" height="892" viewBox="0 0 1440 892" fill="none" xmlns="http://www.w3.org/2000/svg">
<rect width="1440" height="892" fill="#D5FAFC"/>
<g opacity="0.3" clip-path="url(#clip0_1973_6584)">
<path fill-rule="evenodd" clip-rule="evenodd" d="M253.377 82.1171C232.202 92.1823 221.615 104.009 221.615 117.597C230.64 118.603 238.103 122.168 244.005 128.291C249.906 134.414 252.857 141.501 252.857 149.553C252.857 158.108 249.993 165.322 244.265 171.193C238.537 177.064 231.334 180 222.656 180C212.936 180 204.519 176.184 197.402 168.551C190.286 160.918 186.728 151.65 186.728 140.746C186.728 108.035 205.646 82.4527 243.484 64L253.377 82.1171ZM178.649 82.1171C157.301 92.1823 146.626 104.009 146.626 117.597C155.825 118.603 163.375 122.168 169.277 128.291C175.178 134.414 178.129 141.501 178.129 149.553C178.129 158.108 175.221 165.322 169.407 171.193C163.592 177.064 156.346 180 147.668 180C137.948 180 129.574 176.184 122.544 168.551C115.515 160.918 112 151.65 112 140.746C112 108.035 130.832 82.4527 168.496 64L178.649 82.1171Z" fill="#1DB5BE"/>
</g>
<defs>
<clipPath id="clip0_1973_6584">
<rect width="142" height="116" fill="white" transform="translate(112 64)"/>
</clipPath>
</defs>
</svg>
